<svg width="288" height="80" viewBox="0 0 288 80" fill="none" xmlns="http://www.w3.org/2000/svg">
<path d="M169.16 13.16V71H159.68V33.64C159.68 32.1467 159.76 30.5333 159.92 28.8L142.44 61.64C141.613 63.2133 140.347 64 138.64 64H137.12C135.413 64 134.147 63.2133 133.32 61.64L115.64 28.68C115.72 29.56 115.787 30.4267 115.84 31.28C115.893 32.1333 115.92 32.92 115.92 33.64V71H106.44V13.16H114.56C115.04 13.16 115.453 13.1733 115.8 13.2C116.147 13.2267 116.453 13.2933 116.72 13.4C117.013 13.5067 117.267 13.68 117.48 13.92C117.72 14.16 117.947 14.48 118.16 14.88L135.48 47C135.933 47.8533 136.347 48.7333 136.72 49.64C137.12 50.5467 137.507 51.48 137.88 52.44C138.253 51.4533 138.64 50.5067 139.04 49.6C139.44 48.6667 139.867 47.7733 140.32 46.92L157.4 14.88C157.613 14.48 157.84 14.16 158.08 13.92C158.32 13.68 158.573 13.5067 158.84 13.4C159.133 13.2933 159.453 13.2267 159.8 13.2C160.147 13.1733 160.56 13.16 161.04 13.16H169.16ZM205.695 45.76C205.695 44.48 205.508 43.28 205.135 42.16C204.788 41.0133 204.255 40.0133 203.535 39.16C202.815 38.3067 201.895 37.64 200.775 37.16C199.682 36.6533 198.402 36.4 196.935 36.4C194.082 36.4 191.828 37.2133 190.175 38.84C188.548 40.4667 187.508 42.7733 187.055 45.76H205.695ZM186.855 51.72C187.015 53.8267 187.388 55.6533 187.975 57.2C188.562 58.72 189.335 59.9867 190.295 61C191.255 61.9867 192.388 62.7333 193.695 63.24C195.028 63.72 196.495 63.96 198.095 63.96C199.695 63.96 201.068 63.7733 202.215 63.4C203.388 63.0267 204.402 62.6133 205.255 62.16C206.135 61.7067 206.895 61.2933 207.535 60.92C208.202 60.5467 208.842 60.36 209.455 60.36C210.282 60.36 210.895 60.6667 211.295 61.28L214.135 64.88C213.042 66.16 211.815 67.24 210.455 68.12C209.095 68.9733 207.668 69.6667 206.175 70.2C204.708 70.7067 203.202 71.0667 201.655 71.28C200.135 71.4933 198.655 71.6 197.215 71.6C194.362 71.6 191.708 71.1333 189.255 70.2C186.802 69.24 184.668 67.84 182.855 66C181.042 64.1333 179.615 61.84 178.575 59.12C177.535 56.3733 177.015 53.2 177.015 49.6C177.015 46.8 177.468 44.1733 178.375 41.72C179.282 39.24 180.575 37.0933 182.255 35.28C183.962 33.44 186.028 31.9867 188.455 30.92C190.908 29.8533 193.668 29.32 196.735 29.32C199.322 29.32 201.708 29.7333 203.895 30.56C206.082 31.3867 207.962 32.6 209.535 34.2C211.108 35.7733 212.335 37.72 213.215 40.04C214.122 42.3333 214.575 44.96 214.575 47.92C214.575 49.4133 214.415 50.4267 214.095 50.96C213.775 51.4667 213.162 51.72 212.255 51.72H186.855ZM235.279 71.64C231.705 71.64 228.959 70.64 227.039 68.64C225.145 66.6133 224.199 63.8267 224.199 60.28V37.36H219.999C219.465 37.36 219.012 37.1867 218.639 36.84C218.265 36.4933 218.079 35.9733 218.079 35.28V31.36L224.679 30.28L226.759 19.08C226.892 18.5467 227.145 18.1333 227.519 17.84C227.892 17.5467 228.372 17.4 228.959 17.4H234.079V30.32H245.039V37.36H234.079V59.6C234.079 60.88 234.385 61.88 234.999 62.6C235.639 63.32 236.505 63.68 237.599 63.68C238.212 63.68 238.719 63.6133 239.119 63.48C239.545 63.32 239.905 63.16 240.199 63C240.519 62.84 240.799 62.6933 241.039 62.56C241.279 62.4 241.519 62.32 241.759 62.32C242.052 62.32 242.292 62.4 242.479 62.56C242.665 62.6933 242.865 62.9067 243.079 63.2L246.039 68C244.599 69.2 242.945 70.1067 241.079 70.72C239.212 71.3333 237.279 71.64 235.279 71.64ZM273.044 53.48C270.191 53.6133 267.791 53.8667 265.844 54.24C263.898 54.5867 262.338 55.04 261.164 55.6C259.991 56.16 259.151 56.8133 258.644 57.56C258.138 58.3067 257.884 59.12 257.884 60C257.884 61.7333 258.391 62.9733 259.404 63.72C260.444 64.4667 261.791 64.84 263.444 64.84C265.471 64.84 267.218 64.48 268.684 63.76C270.178 63.0133 271.631 61.8933 273.044 60.4V53.48ZM250.404 35.68C255.124 31.36 260.804 29.2 267.444 29.2C269.844 29.2 271.991 29.6 273.884 30.4C275.778 31.1733 277.378 32.2667 278.684 33.68C279.991 35.0667 280.978 36.7333 281.644 38.68C282.338 40.6267 282.684 42.76 282.684 45.08V71H278.204C277.271 71 276.551 70.8667 276.044 70.6C275.538 70.3067 275.138 69.7333 274.844 68.88L273.964 65.92C272.924 66.8533 271.911 67.68 270.924 68.4C269.938 69.0933 268.911 69.68 267.844 70.16C266.778 70.64 265.631 71 264.404 71.24C263.204 71.5067 261.871 71.64 260.404 71.64C258.671 71.64 257.071 71.4133 255.604 70.96C254.138 70.48 252.871 69.7733 251.804 68.84C250.738 67.9067 249.911 66.7467 249.324 65.36C248.738 63.9733 248.444 62.36 248.444 60.52C248.444 59.48 248.618 58.4533 248.964 57.44C249.311 56.4 249.871 55.4133 250.644 54.48C251.444 53.5467 252.471 52.6667 253.724 51.84C254.978 51.0133 256.511 50.2933 258.324 49.68C260.164 49.0667 262.298 48.5733 264.724 48.2C267.151 47.8 269.924 47.56 273.044 47.48V45.08C273.044 42.3333 272.458 40.3067 271.284 39C270.111 37.6667 268.418 37 266.204 37C264.604 37 263.271 37.1867 262.204 37.56C261.164 37.9333 260.244 38.36 259.444 38.84C258.644 39.2933 257.911 39.7067 257.244 40.08C256.604 40.4533 255.884 40.64 255.084 40.64C254.391 40.64 253.804 40.4667 253.324 40.12C252.844 39.7467 252.458 39.32 252.164 38.84L250.404 35.68Z" fill="white"/>
<circle cx="40" cy="40" r="36" stroke="white" stroke-width="8"/>
<path d="M40.4707 32.3081H26.0281L34.2215 49.6729L40.4707 62.5956V32.3081Z" fill="white"/>
<path d="M40.4707 32.3081H26.0281L34.2215 25.8252L40.4707 21.0008V32.3081Z" fill="white"/>
<path d="M40.4707 32.3081H54.9133L46.7199 25.8252L40.4707 21.0008V32.3081Z" fill="white"/>
<path d="M40.4707 32.3081H54.9133L46.7199 49.6729L40.4707 62.5956V32.3081Z" fill="white"/>
<path d="M26.0281 32.3081H17.0015L28.5105 47.048L40.4707 62.5956L26.0281 32.3081Z" fill="white"/>
<path d="M26.0266 32.3081H17L23.093 26.6544L29.4116 21.0008L26.0266 32.3081Z" fill="white"/>
<path d="M54.9133 32.3076H63.9399L57.8469 26.654L51.5283 21.0003L54.9133 32.3076Z" fill="white"/>
<path d="M26.0283 32.3071L40.4709 20.9998L30.9929 20.9998H29.4133L26.0283 32.3071Z" fill="white"/>
<path d="M54.9116 32.3081L40.4691 21.0008L49.947 21.0008H51.5266L54.9116 32.3081Z" fill="white"/>
<path d="M54.9133 32.3081H63.9399L52.4309 47.048L40.4707 62.5956L54.9133 32.3081Z" fill="white"/>
</svg>
